<svg width="138" height="96" viewBox="0 0 138 96" fill="none" xmlns="http://www.w3.org/2000/svg">
<path d="M32.8052 43.9999C32.8052 53.9411 40.864 61.9999 50.8052 61.9999L77.8052 61.9999C80.5666 61.9999 82.8052 59.7614 82.8052 56.9999L82.8052 22.9999C82.8052 17.4771 78.328 12.9999 72.8052 12.9999L37.8052 12.9999C35.0437 12.9999 32.8052 15.2385 32.8052 17.9999L32.8052 43.9999Z" fill="#FFF1DA"/>
<path d="M74.1013 63.1288C72.7868 62.6707 71.3656 62.4514 69.926 62.4844C66.2021 62.5276 63.1427 63.9904 63.0931 65.7514C63.0436 67.5124 66.0227 68.9042 69.7467 68.861C71.1853 68.8603 72.6195 68.6082 73.9608 68.1204C74.5946 67.8759 75.0134 67.3408 75.029 66.7561L75.0933 64.4685C75.1115 63.8835 74.722 63.3581 74.1013 63.1288Z" fill="#D5D6DB"/>
<path d="M81.6415 36.0368C80.6883 35.7047 79.6576 35.5459 78.6136 35.5698C75.914 35.6011 73.695 36.6614 73.6591 37.9372C73.6232 39.2131 75.7843 40.2225 78.4836 40.1912C79.5269 40.1904 80.567 40.0073 81.5398 39.6536C81.9989 39.4763 82.3022 39.0886 82.3136 38.6647L82.3602 37.0082C82.3735 36.5843 82.0916 36.2032 81.6415 36.0368Z" fill="#D5D6DB"/>
<path d="M70.1592 30.2369C69.9858 30.1004 69.7564 30.0267 69.5158 30.0298L63.1744 30.1037C62.6444 30.1091 62.2036 30.4796 62.19 30.9317C62.1868 31.0352 62.2068 31.1377 62.2489 31.2333L68.6541 45.9052L89.7995 45.6588L70.1592 30.2369Z" fill="#029BC5"/>
<path d="M118.73 58.8876L61.3834 59.2389L30.9638 53.7974L16.9886 48.545L17.0641 45.3699L112.136 45.616C114.972 45.618 117.738 46.2553 120.153 47.4639C121.207 47.9986 122.174 48.6453 123.032 49.3886C123.797 50.0411 124.445 50.7855 124.956 51.5997C125.522 52.5144 127.052 53.5292 127.054 54.6521C127.056 54.6519 125.939 59.1076 118.73 58.8876Z" fill="#E1E6E9"/>
<path d="M64.0626 56.144L28.5694 73.5012C28.0986 73.7623 27.9531 74.2916 28.2441 74.6834C28.4227 74.9238 28.7352 75.0667 29.0745 75.0632L35.4029 75.0025C36.6202 74.9905 37.8305 74.7668 38.9589 74.3451L98.8019 55.1597L64.0626 56.144Z" fill="#029BC5"/>
<path d="M19.6449 27.245C19.4105 26.9585 19.0237 26.7914 18.6066 26.7961L13.3696 26.8557C12.6562 26.8635 12.0639 27.3626 12.0465 27.9705C12.0432 28.0862 12.0612 28.2008 12.1 28.3102L17.385 43.2604L32.7278 43.2205L19.6449 27.245Z" fill="#029BC5"/>
<path d="M19.9664 46.9669L9.3855 51.3782C9.23179 51.4406 9.16252 51.5957 9.23082 51.7244C9.28011 51.8173 9.39048 51.8746 9.51174 51.8704L14.3988 51.826C14.4368 51.8256 14.4749 51.8193 14.5106 51.8073L29.023 46.8884L19.9664 46.9669Z" fill="#029BC5"/>
<path d="M122.143 49.3101C121.26 48.5435 120.264 47.878 119.177 47.3287C117.303 48.1083 115.683 49.2858 114.48 50.7436C114.265 51.0536 114.38 51.4437 114.736 51.6151C114.847 51.6683 114.973 51.6959 115.102 51.6952L124.12 51.5935C123.596 50.7516 122.93 49.9828 122.143 49.3101Z" fill="#029BC5"/>
<path d="M103.359 48.1312L109.234 48.0866L109.013 57.2123L103.138 57.2569L103.359 48.1312Z" fill="#D5D6DB"/>
<path d="M99.062 49.1262C98.3536 49.1326 97.7658 49.6254 97.7498 50.2273L97.7238 51.2023C97.7317 51.8034 98.3128 52.269 99.0218 52.2424C99.6967 52.2168 100.25 51.7524 100.289 51.1793L100.315 50.2043C100.331 49.603 99.7702 49.1204 99.062 49.1262Z" fill="#3A556A"/>
<path d="M93.8068 49.1262C93.0983 49.1326 92.5106 49.6254 92.4945 50.2273L92.4686 51.2023C92.4765 51.8034 93.0576 52.269 93.7666 52.2424C94.4415 52.2168 94.9952 51.7524 95.0335 51.1793L95.0595 50.2043C95.0752 49.603 94.5147 49.1204 93.8068 49.1262Z" fill="#3A556A"/>
<path d="M88.5498 49.1262C87.8416 49.1333 87.2551 49.6259 87.2391 50.2272L87.2131 51.2022C87.221 51.8033 87.8021 52.269 88.5111 52.2423C89.186 52.2167 89.7398 51.7524 89.7781 51.1793L89.804 50.2043C89.82 49.6025 89.2586 49.1199 88.5498 49.1262Z" fill="#3A556A"/>
<path d="M83.2948 49.1262C82.5866 49.1333 82.0001 49.626 81.984 50.2273L81.9581 51.2023C81.966 51.8034 82.5471 52.269 83.2561 52.2424C83.931 52.2168 84.4848 51.7524 84.523 51.1793L84.549 50.2043C84.5647 49.6025 84.0033 49.1199 83.2948 49.1262Z" fill="#3A556A"/>
<path d="M78.0399 49.1267C77.3313 49.1338 76.7445 49.6266 76.7285 50.2282L76.7026 51.2037C76.6866 51.805 77.2478 52.2874 77.9561 52.2811C78.6644 52.2748 79.2515 51.7822 79.2675 51.1809L79.2934 50.2054C79.3102 49.6041 78.7496 49.1212 78.0414 49.1267C78.0408 49.1267 78.0405 49.1267 78.0399 49.1267Z" fill="#3A556A"/>
<path d="M72.7846 49.1267C72.076 49.1338 71.4892 49.6266 71.4732 50.2282L71.4473 51.2037C71.4314 51.805 71.9926 52.2874 72.7009 52.2811C73.4091 52.2748 73.9962 51.7822 74.0122 51.1809L74.0381 50.2054C74.055 49.6041 73.4944 49.1212 72.7861 49.1267C72.7855 49.1267 72.7849 49.1267 72.7846 49.1267Z" fill="#3A556A"/>
<path d="M67.5291 49.1267C66.8205 49.1337 66.2337 49.6265 66.2178 50.2281L66.1919 51.2035C66.1768 51.8049 66.7389 52.2865 67.4469 52.2794C68.1537 52.2724 68.7395 51.7809 68.7564 51.1808L68.7823 50.2054C68.7985 49.6038 68.2376 49.1209 67.5291 49.1267Z" fill="#3A556A"/>
<path d="M62.2737 49.1267C61.5652 49.1337 60.9784 49.6265 60.9624 50.2281L60.9365 51.2036C60.9214 51.8049 61.4835 52.2865 62.1915 52.2795C62.8983 52.2724 63.4841 51.7809 63.501 51.1808L63.5269 50.2054C63.5432 49.6038 62.9823 49.1209 62.2737 49.1267Z" fill="#3A556A"/>
<path d="M57.0186 49.1267C56.31 49.1338 55.7232 49.6266 55.7073 50.2282L55.6814 51.2036C55.6663 51.8049 56.2284 52.2865 56.9364 52.2795C57.6432 52.2724 58.229 51.7809 58.2459 51.1809L58.2718 50.2054C58.2877 49.6039 57.7269 49.121 57.0186 49.1267Z" fill="#3A556A"/>
<path d="M51.7618 49.1267C51.0535 49.133 50.4664 49.6255 50.4504 50.2269L50.4504 50.2281L50.4245 51.2036C50.4094 51.8049 50.9715 52.2865 51.6795 52.2795C52.3863 52.2724 52.9722 51.7809 52.989 51.1808L53.0149 50.2054C53.0312 49.6038 52.4703 49.1209 51.7618 49.1267Z" fill="#3A556A"/>
<path d="M46.508 49.1267C45.7997 49.133 45.2126 49.6255 45.1967 50.2269L45.1966 50.2281L45.1708 51.2036C45.1557 51.8049 45.7178 52.2865 46.4258 52.2794C47.1326 52.2724 47.7185 51.7809 47.7353 51.1808L47.7612 50.2054C47.7772 49.6038 47.2163 49.1209 46.508 49.1267Z" fill="#3A556A"/>
</svg>
