<svg width="203" height="274" viewBox="0 0 203 274" fill="none" xmlns="http://www.w3.org/2000/svg">
<path d="M269.818 178.32C269.818 182.53 269.535 186.674 268.986 190.734C246.782 233.291 203.63 263.183 153.208 266.732C114.558 255.91 86.2117 220.425 86.2117 178.32C86.2117 127.619 127.313 86.5168 178.015 86.5168C228.717 86.5168 269.818 127.619 269.818 178.32ZM270.305 188.142C270.644 184.914 270.818 181.638 270.818 178.32C270.818 127.066 229.269 85.5168 178.015 85.5168C126.761 85.5168 85.2117 127.066 85.2117 178.32C85.2117 219.913 112.574 255.116 150.281 266.908C149.546 266.945 148.809 266.976 148.07 267.002C145.038 266.892 142.031 266.678 139.055 266.363C97.8158 253.012 67.9938 214.29 67.9938 168.604C67.9938 111.865 113.989 65.8699 170.728 65.8699C227.466 65.8699 273.462 111.865 273.462 168.604C273.462 173.791 273.077 178.888 272.336 183.868C271.682 185.305 271.005 186.73 270.305 188.142ZM163.343 266.664C208.789 260.219 247.355 232.395 268.536 193.697C268.39 194.566 268.231 195.43 268.06 196.29C248.249 235.34 209.175 262.966 163.343 266.664ZM269.66 193.023C269.765 192.365 269.863 191.704 269.954 191.041C270.559 189.877 271.15 188.703 271.724 187.52C271.621 188.072 271.514 188.622 271.403 189.17C270.842 190.466 270.261 191.75 269.66 193.023ZM158.193 267.978C205.331 266.062 246.007 239.074 267.245 199.993C266.827 201.721 266.36 203.43 265.845 205.119C247.168 240.854 211.156 266.095 168.97 269.684C165.31 269.326 161.714 268.753 158.193 267.978ZM268.169 200.428C268.477 199.168 268.759 197.899 269.014 196.62C269.45 195.759 269.876 194.893 270.293 194.021C269.905 195.545 269.484 197.056 269.028 198.552C268.747 199.18 268.461 199.805 268.169 200.428ZM174.718 270.065C212.874 265.022 245.466 242.337 264.029 210.475C263.06 213.068 261.976 215.604 260.785 218.08C257.795 223.511 254.328 228.643 250.44 233.418C240.201 245.487 227.46 255.367 213.018 262.257C206.72 265.106 200.083 267.338 193.185 268.876C188.25 269.697 183.182 270.123 178.015 270.123C176.911 270.123 175.812 270.104 174.718 270.065ZM170.728 272.338C175.265 272.338 179.734 272.047 184.117 271.482C177.796 272.585 171.293 273.16 164.655 273.16C152.726 273.16 141.231 271.302 130.444 267.861C138.153 269.682 146.144 270.771 154.341 271.051C159.679 271.898 165.152 272.338 170.728 272.338ZM146.743 269.551C142.857 269.174 139.024 268.612 135.254 267.875C137.226 267.982 139.208 268.049 141.199 268.075C143.027 268.616 144.875 269.109 146.743 269.551ZM154.438 270.054C151.221 269.541 148.054 268.879 144.944 268.075C145.989 268.062 147.03 268.038 148.07 268.002C149.644 268.059 151.226 268.087 152.814 268.087C153.326 268.087 153.837 268.084 154.347 268.078C157.391 268.879 160.496 269.528 163.653 270.019C161.972 270.088 160.281 270.123 158.583 270.123C157.196 270.123 155.814 270.1 154.438 270.054ZM162.938 271.047C164.96 270.976 166.968 270.856 168.964 270.688C171.756 270.958 174.585 271.105 177.445 271.122C175.225 271.265 172.985 271.338 170.728 271.338C168.107 271.338 165.51 271.24 162.938 271.047ZM66.9938 168.604C66.9938 213.09 94.9969 251.036 134.337 265.775C127.403 264.782 120.646 263.238 114.113 261.189C77.3928 242.681 52.2053 204.637 52.2053 160.71C52.2053 98.6051 102.551 48.2595 164.655 48.2595C226.76 48.2595 277.105 98.6051 277.105 160.71C277.105 165.278 276.833 169.784 276.303 174.21C275.511 176.361 274.669 178.488 273.777 180.589C274.229 176.657 274.462 172.657 274.462 168.604C274.462 111.313 228.019 64.8699 170.728 64.8699C113.437 64.8699 66.9938 111.313 66.9938 168.604ZM51.2053 160.71C51.2053 202.886 74.2203 239.687 108.376 259.239C108.36 259.233 108.344 259.227 108.328 259.221C66.6138 240.141 37.6312 198.041 37.6312 149.172C37.6312 82.3717 91.7831 28.2198 158.583 28.2198C225.383 28.2198 279.535 82.3717 279.535 149.172C279.535 156.34 278.911 163.363 277.715 170.188C277.974 167.063 278.105 163.902 278.105 160.71C278.105 98.0528 227.312 47.2595 164.655 47.2595C101.999 47.2595 51.2053 98.0528 51.2053 160.71ZM36.6312 149.172C36.6312 193.991 60.8089 233.163 96.8333 254.357C53.5403 233.501 23.6641 189.208 23.6641 137.937C23.6641 66.6099 81.4864 8.7876 152.814 8.7876C224.141 8.7876 281.964 66.6099 281.964 137.937C281.964 145.567 281.302 153.043 280.033 160.31C280.365 156.641 280.535 152.926 280.535 149.172C280.535 81.8194 225.935 27.2198 158.583 27.2198C91.2308 27.2198 36.6312 81.8194 36.6312 149.172ZM22.6641 137.937C22.6641 194.05 58.174 241.868 107.948 260.147C111.401 261.725 114.94 263.147 118.557 264.403C119.266 264.719 119.979 265.027 120.696 265.329C52.9698 254.588 1.19568 195.933 1.19568 125.185C1.19568 46.8145 64.7274 -16.7173 143.098 -16.7173C221.468 -16.7173 285 46.8145 285 125.185C285 135.443 283.911 145.448 281.844 155.089C282.582 149.476 282.964 143.751 282.964 137.937C282.964 66.0576 224.694 7.7876 152.814 7.7876C80.9341 7.7876 22.6641 66.0576 22.6641 137.937ZM134.775 266.847C132.655 266.724 130.547 266.555 128.453 266.341C125.938 265.696 123.454 264.972 121.004 264.172C125.506 265.303 130.101 266.199 134.775 266.847ZM272.362 189.472C272.902 188.222 273.422 186.961 273.924 185.691C273.308 187.637 272.645 189.562 271.935 191.464C272.083 190.802 272.226 190.138 272.362 189.472ZM217.431 261.255C228.43 255.699 238.305 248.243 246.625 239.318C238.504 248.446 228.588 255.943 217.431 261.255ZM269.967 198.903C270.799 197.042 271.586 195.157 272.326 193.248C270.816 198.251 268.967 203.107 266.806 207.789C267.989 204.89 269.045 201.926 269.967 198.903ZM274.211 182.111C273.887 183.003 273.553 183.891 273.209 184.773C273.241 184.567 273.273 184.361 273.304 184.155C273.612 183.476 273.914 182.795 274.211 182.111Z" stroke="hsl(250, 70%, 82%)"/>
</svg>
